<svg width="344" height="130" viewBox="0 0 344 130" fill="none" xmlns="http://www.w3.org/2000/svg">
<path d="M68.6792 69.0876C70.7208 69.0876 72.7052 68.7855 74.6375 68.1709C76.5646 67.5459 77.9813 66.9522 78.8875 66.3793L80.2417 65.4418L85.95 76.8793C85.7521 77.0199 85.4917 77.2074 85.1583 77.4418C84.825 77.6814 84.0542 78.1241 82.8458 78.7751C81.6375 79.4157 80.3354 79.9782 78.95 80.4626C77.575 80.9366 75.7677 81.3584 73.5333 81.7334C71.2938 82.1084 68.9813 82.2959 66.5958 82.2959C61.1219 82.2959 55.9344 80.9574 51.0333 78.2751C46.1271 75.5824 42.1792 71.8793 39.1792 67.1709C36.1792 62.4522 34.6792 57.3532 34.6792 51.8793C34.6792 47.7439 35.5594 43.7699 37.325 39.9626C39.0854 36.1449 41.4292 32.8793 44.3458 30.1709C47.2729 27.4626 50.6896 25.2959 54.5958 23.6709C58.4969 22.0459 62.4969 21.2334 66.5958 21.2334C70.3979 21.2334 73.9083 21.6918 77.1167 22.6084C80.3354 23.5147 82.6167 24.4157 83.95 25.3168L85.95 26.6709L80.2417 38.0876C79.9083 37.8116 79.4083 37.473 78.7417 37.0668C78.075 36.6657 76.7417 36.1293 74.7417 35.4626C72.7417 34.7959 70.7208 34.4626 68.6792 34.4626C65.4292 34.4626 62.5177 34.9834 59.95 36.0251C57.3771 37.0668 55.3458 38.4522 53.8458 40.1709C52.3458 41.8793 51.2 43.7282 50.4083 45.7126C49.6271 47.6866 49.2417 49.6918 49.2417 51.7334C49.2417 56.2074 50.9188 60.223 54.2833 63.7751C57.6427 67.3168 62.4396 69.0876 68.6792 69.0876Z" fill="black"/>
<path d="M87.5008 76.6918C84.0842 72.9574 82.3758 68.3793 82.3758 62.9626C82.3758 57.5355 84.0842 52.9366 87.5008 49.1709C90.9279 45.4105 95.2925 43.5251 100.584 43.5251C105.444 43.5251 109.444 45.0459 112.584 48.0876V44.5876H125.23V81.2335H112.73V77.0876H112.584C109.444 80.5616 105.444 82.296 100.584 82.296C95.2925 82.296 90.9279 80.4314 87.5008 76.6918ZM98.2508 56.7543C96.6102 58.3689 95.7925 60.4366 95.7925 62.9626C95.7925 65.4782 96.5737 67.5355 98.1467 69.1293C99.73 70.7282 101.803 71.5251 104.376 71.5251C106.845 71.5251 108.881 70.723 110.48 69.1084C112.074 67.4834 112.876 65.4314 112.876 62.9418C112.876 60.4314 112.048 58.3689 110.397 56.7543C108.756 55.1293 106.751 54.3168 104.376 54.3168C101.944 54.3168 99.9019 55.1293 98.2508 56.7543Z" fill="black"/>
<path d="M127.72 81.2335V44.5876H140.345V48.4626H140.491C143.782 45.1709 147.282 43.5251 150.991 43.5251C153.657 43.5251 156.157 44.0772 158.491 45.1709C160.824 46.2699 162.585 47.9574 163.782 50.2334C167.491 45.7647 171.538 43.5251 175.928 43.5251C179.829 43.5251 183.184 44.6241 185.991 46.8168C188.793 48.9991 190.199 52.4209 190.199 57.0876V81.2335H177.553V60.5251C177.553 58.5668 177.017 56.9366 175.949 55.6293C174.876 54.3272 173.272 53.6709 171.137 53.6709C169.272 53.6709 167.855 54.2334 166.887 55.3584C165.913 56.473 165.376 57.8116 165.282 59.3793V81.2335H152.637V60.5251C152.637 58.5668 152.1 56.9366 151.032 55.6293C149.96 54.3272 148.355 53.6709 146.22 53.6709C144.262 53.6709 142.788 54.2855 141.803 55.5043C140.829 56.7126 140.345 58.1501 140.345 59.8168V81.2335H127.72Z" fill="black"/>
<path d="M229.67 49.1709C233.097 52.9366 234.816 57.5355 234.816 62.9626C234.816 68.3793 233.097 72.9574 229.67 76.6918C226.253 80.4314 221.899 82.2959 216.608 82.2959C211.759 82.2959 207.759 80.5616 204.608 77.0876H204.483V81.2334H191.983V19.8168H204.608V48.0876C207.759 45.0459 211.759 43.5251 216.608 43.5251C221.899 43.5251 226.253 45.4105 229.67 49.1709ZM219.045 69.1293C220.613 67.5355 221.399 65.4782 221.399 62.9626C221.399 60.4366 220.571 58.3689 218.92 56.7543C217.279 55.1293 215.253 54.3168 212.837 54.3168C210.446 54.3168 208.43 55.1293 206.795 56.7543C205.154 58.3689 204.337 60.4314 204.337 62.9418C204.337 65.4314 205.128 67.4834 206.712 69.1084C208.305 70.723 210.347 71.5251 212.837 71.5251C215.404 71.5251 217.472 70.7282 219.045 69.1293Z" fill="black"/>
<path d="M271.743 64.6709H245.181C245.181 67.2439 246.014 69.1449 247.681 70.3793C249.348 71.6189 251.15 72.2334 253.098 72.2334C255.15 72.2334 256.769 71.9626 257.952 71.4209C259.144 70.8689 260.504 69.7855 262.035 68.1709L271.16 72.7334C267.353 79.1084 261.025 82.296 252.181 82.296C246.65 82.296 241.91 80.4105 237.952 76.6293C234.004 72.8376 232.035 68.2751 232.035 62.9418C232.035 57.6085 234.004 53.0407 237.952 49.2334C241.91 45.4314 246.65 43.5251 252.181 43.5251C257.983 43.5251 262.707 45.2074 266.348 48.5668C269.983 51.9157 271.806 56.7074 271.806 62.9418C271.806 63.8064 271.785 64.3793 271.743 64.6709ZM245.535 57.6709H259.452C259.17 55.7699 258.42 54.3064 257.202 53.2751C255.993 52.2491 254.436 51.7334 252.535 51.7334C250.436 51.7334 248.769 52.2855 247.535 53.3793C246.295 54.4782 245.629 55.9105 245.535 57.6709Z" fill="black"/>
<path d="M271.667 81.2335V44.5876H284.292V49.8793H284.438C284.531 49.6866 284.688 49.4522 284.896 49.1709C285.115 48.8793 285.584 48.3793 286.292 47.6709C287.011 46.9522 287.776 46.3064 288.584 45.7334C289.386 45.1657 290.438 44.6605 291.729 44.2126C293.021 43.7543 294.323 43.5251 295.646 43.5251C297.031 43.5251 298.396 43.723 299.729 44.1084C301.063 44.4834 302.031 44.8584 302.646 45.2334L303.646 45.8168L298.375 56.5251C296.802 55.1918 294.61 54.5251 291.792 54.5251C290.276 54.5251 288.969 54.8584 287.875 55.5251C286.776 56.1918 286 57.0043 285.542 57.9626C285.094 58.9105 284.776 59.7126 284.584 60.3793C284.386 61.046 284.292 61.5668 284.292 61.9418V81.2335H271.667Z" fill="black"/>
<path fill-rule="evenodd" clip-rule="evenodd" d="M85.3906 129.099H0.958328V119.099H85.3906V129.099Z" fill="#292929"/>
<path fill-rule="evenodd" clip-rule="evenodd" d="M0.953125 126.104V43.6406H10.9531V126.104H0.953125Z" fill="#292929"/>
<path fill-rule="evenodd" clip-rule="evenodd" d="M259.484 0.890625H343.917V10.8906H259.484V0.890625Z" fill="#292929"/>
<path fill-rule="evenodd" clip-rule="evenodd" d="M343.922 3.88542V86.349H333.922V3.88542H343.922Z" fill="#292929"/>
</svg>
